<mxfile host="app.diagrams.net" modified="2023-12-02T04:47:11.461Z" agent="Mozilla/5.0 (Windows NT 10.0; Win64; x64) AppleWebKit/537.36 (KHTML, like Gecko) Chrome/119.0.0.0 Safari/537.36" etag="TFbpP7FSD7uq5NKITE2b" version="22.1.5" type="device" pages="5">
  <diagram name="Add Customer" id="yTBnHWJTKA_u_PjYK0fe">
    <mxGraphModel dx="1060" dy="570" grid="1" gridSize="10" guides="1" tooltips="1" connect="1" arrows="1" fold="1" page="1" pageScale="1" pageWidth="1100" pageHeight="850" math="0" shadow="0">
      <root>
        <mxCell id="0" />
        <mxCell id="1" parent="0" />
        <mxCell id="Q5OW2qCF10fPnXznPesb-1" value="" style="whiteSpace=wrap;html=1;aspect=fixed;fillColor=none;strokeColor=default;" vertex="1" parent="1">
          <mxGeometry x="240" y="60" width="410" height="410" as="geometry" />
        </mxCell>
        <mxCell id="Q5OW2qCF10fPnXznPesb-12" style="edgeStyle=orthogonalEdgeStyle;rounded=0;orthogonalLoop=1;jettySize=auto;html=1;" edge="1" parent="1" source="Q5OW2qCF10fPnXznPesb-2" target="Q5OW2qCF10fPnXznPesb-3">
          <mxGeometry relative="1" as="geometry" />
        </mxCell>
        <mxCell id="Q5OW2qCF10fPnXznPesb-2" value="Owner/Admin" style="shape=umlActor;verticalLabelPosition=bottom;verticalAlign=top;html=1;" vertex="1" parent="1">
          <mxGeometry x="140" y="215" width="30" height="60" as="geometry" />
        </mxCell>
        <mxCell id="Q5OW2qCF10fPnXznPesb-3" value="Add New Customer" style="ellipse;whiteSpace=wrap;html=1;" vertex="1" parent="1">
          <mxGeometry x="260" y="210" width="140" height="70" as="geometry" />
        </mxCell>
        <mxCell id="Q5OW2qCF10fPnXznPesb-4" value="Successful Insertion Message" style="ellipse;whiteSpace=wrap;html=1;" vertex="1" parent="1">
          <mxGeometry x="270" y="355" width="140" height="70" as="geometry" />
        </mxCell>
        <mxCell id="Q5OW2qCF10fPnXznPesb-5" value="Error Message" style="ellipse;whiteSpace=wrap;html=1;" vertex="1" parent="1">
          <mxGeometry x="480" y="355" width="140" height="70" as="geometry" />
        </mxCell>
        <mxCell id="Q5OW2qCF10fPnXznPesb-6" value="Calling Insertion Function" style="ellipse;whiteSpace=wrap;html=1;" vertex="1" parent="1">
          <mxGeometry x="500" y="210" width="140" height="70" as="geometry" />
        </mxCell>
        <mxCell id="Q5OW2qCF10fPnXznPesb-7" value="System Checking Inputs" style="ellipse;whiteSpace=wrap;html=1;" vertex="1" parent="1">
          <mxGeometry x="270" y="70" width="140" height="70" as="geometry" />
        </mxCell>
        <mxCell id="Q5OW2qCF10fPnXznPesb-8" value="System Validation" style="ellipse;whiteSpace=wrap;html=1;" vertex="1" parent="1">
          <mxGeometry x="470" y="80" width="140" height="70" as="geometry" />
        </mxCell>
        <mxCell id="Q5OW2qCF10fPnXznPesb-9" value="&amp;lt;&amp;lt;Include&amp;gt;&amp;gt;" style="endArrow=open;endSize=12;dashed=1;html=1;rounded=0;" edge="1" parent="1" source="Q5OW2qCF10fPnXznPesb-3" target="Q5OW2qCF10fPnXznPesb-7">
          <mxGeometry width="160" relative="1" as="geometry">
            <mxPoint x="500" y="150" as="sourcePoint" />
            <mxPoint x="340" y="150" as="targetPoint" />
          </mxGeometry>
        </mxCell>
        <mxCell id="Q5OW2qCF10fPnXznPesb-10" value="&amp;lt;&amp;lt;Extend&amp;gt;&amp;gt;" style="endArrow=open;endSize=12;dashed=1;html=1;rounded=0;entryX=1;entryY=0;entryDx=0;entryDy=0;exitX=0.086;exitY=0.862;exitDx=0;exitDy=0;exitPerimeter=0;" edge="1" parent="1" source="Q5OW2qCF10fPnXznPesb-8" target="Q5OW2qCF10fPnXznPesb-3">
          <mxGeometry width="160" relative="1" as="geometry">
            <mxPoint x="350" y="215" as="sourcePoint" />
            <mxPoint x="350" y="160" as="targetPoint" />
          </mxGeometry>
        </mxCell>
        <mxCell id="Q5OW2qCF10fPnXznPesb-11" value="&amp;lt;&amp;lt;Extend&amp;gt;&amp;gt;" style="endArrow=open;endSize=12;dashed=1;html=1;rounded=0;exitX=0;exitY=0.5;exitDx=0;exitDy=0;" edge="1" parent="1" source="Q5OW2qCF10fPnXznPesb-6" target="Q5OW2qCF10fPnXznPesb-3">
          <mxGeometry width="160" relative="1" as="geometry">
            <mxPoint x="492" y="150" as="sourcePoint" />
            <mxPoint x="410" y="240" as="targetPoint" />
          </mxGeometry>
        </mxCell>
        <mxCell id="Q5OW2qCF10fPnXznPesb-13" value="&amp;lt;&amp;lt;Extend&amp;gt;&amp;gt;" style="endArrow=open;endSize=12;dashed=1;html=1;rounded=0;exitX=0;exitY=0;exitDx=0;exitDy=0;" edge="1" parent="1" source="Q5OW2qCF10fPnXznPesb-5" target="Q5OW2qCF10fPnXznPesb-3">
          <mxGeometry width="160" relative="1" as="geometry">
            <mxPoint x="492" y="150" as="sourcePoint" />
            <mxPoint x="389" y="230" as="targetPoint" />
          </mxGeometry>
        </mxCell>
        <mxCell id="Q5OW2qCF10fPnXznPesb-14" value="&amp;lt;&amp;lt;Extend&amp;gt;&amp;gt;" style="endArrow=open;endSize=12;dashed=1;html=1;rounded=0;entryX=0.5;entryY=1;entryDx=0;entryDy=0;exitX=0.5;exitY=0;exitDx=0;exitDy=0;" edge="1" parent="1" source="Q5OW2qCF10fPnXznPesb-4" target="Q5OW2qCF10fPnXznPesb-3">
          <mxGeometry width="160" relative="1" as="geometry">
            <mxPoint x="502" y="160" as="sourcePoint" />
            <mxPoint x="399" y="240" as="targetPoint" />
          </mxGeometry>
        </mxCell>
      </root>
    </mxGraphModel>
  </diagram>
  <diagram name="Modify Customer" id="5jCCq6QlvNcepWptNSjZ">
    <mxGraphModel dx="873" dy="469" grid="1" gridSize="10" guides="1" tooltips="1" connect="1" arrows="1" fold="1" page="1" pageScale="1" pageWidth="1100" pageHeight="850" math="0" shadow="0">
      <root>
        <mxCell id="qmGypnQEwG-DnGRrSVPr-0" />
        <mxCell id="qmGypnQEwG-DnGRrSVPr-1" parent="qmGypnQEwG-DnGRrSVPr-0" />
        <mxCell id="qmGypnQEwG-DnGRrSVPr-2" value="" style="whiteSpace=wrap;html=1;aspect=fixed;fillColor=none;strokeColor=default;" vertex="1" parent="qmGypnQEwG-DnGRrSVPr-1">
          <mxGeometry x="240" y="60" width="410" height="410" as="geometry" />
        </mxCell>
        <mxCell id="qmGypnQEwG-DnGRrSVPr-3" style="edgeStyle=orthogonalEdgeStyle;rounded=0;orthogonalLoop=1;jettySize=auto;html=1;" edge="1" parent="qmGypnQEwG-DnGRrSVPr-1" source="qmGypnQEwG-DnGRrSVPr-4" target="qmGypnQEwG-DnGRrSVPr-5">
          <mxGeometry relative="1" as="geometry" />
        </mxCell>
        <mxCell id="qmGypnQEwG-DnGRrSVPr-4" value="Owner/Admin" style="shape=umlActor;verticalLabelPosition=bottom;verticalAlign=top;html=1;" vertex="1" parent="qmGypnQEwG-DnGRrSVPr-1">
          <mxGeometry x="140" y="215" width="30" height="60" as="geometry" />
        </mxCell>
        <mxCell id="qmGypnQEwG-DnGRrSVPr-5" value="Modify Customer" style="ellipse;whiteSpace=wrap;html=1;" vertex="1" parent="qmGypnQEwG-DnGRrSVPr-1">
          <mxGeometry x="260" y="210" width="140" height="70" as="geometry" />
        </mxCell>
        <mxCell id="qmGypnQEwG-DnGRrSVPr-6" value="Successful Editing Message" style="ellipse;whiteSpace=wrap;html=1;" vertex="1" parent="qmGypnQEwG-DnGRrSVPr-1">
          <mxGeometry x="270" y="355" width="140" height="70" as="geometry" />
        </mxCell>
        <mxCell id="qmGypnQEwG-DnGRrSVPr-7" value="Error Message" style="ellipse;whiteSpace=wrap;html=1;" vertex="1" parent="qmGypnQEwG-DnGRrSVPr-1">
          <mxGeometry x="480" y="355" width="140" height="70" as="geometry" />
        </mxCell>
        <mxCell id="qmGypnQEwG-DnGRrSVPr-8" value="Calling Editing Function" style="ellipse;whiteSpace=wrap;html=1;" vertex="1" parent="qmGypnQEwG-DnGRrSVPr-1">
          <mxGeometry x="500" y="210" width="140" height="70" as="geometry" />
        </mxCell>
        <mxCell id="qmGypnQEwG-DnGRrSVPr-9" value="System Checking Inputs" style="ellipse;whiteSpace=wrap;html=1;" vertex="1" parent="qmGypnQEwG-DnGRrSVPr-1">
          <mxGeometry x="270" y="70" width="140" height="70" as="geometry" />
        </mxCell>
        <mxCell id="qmGypnQEwG-DnGRrSVPr-10" value="System Validation" style="ellipse;whiteSpace=wrap;html=1;" vertex="1" parent="qmGypnQEwG-DnGRrSVPr-1">
          <mxGeometry x="470" y="80" width="140" height="70" as="geometry" />
        </mxCell>
        <mxCell id="qmGypnQEwG-DnGRrSVPr-11" value="&amp;lt;&amp;lt;Include&amp;gt;&amp;gt;" style="endArrow=open;endSize=12;dashed=1;html=1;rounded=0;" edge="1" parent="qmGypnQEwG-DnGRrSVPr-1" source="qmGypnQEwG-DnGRrSVPr-5" target="qmGypnQEwG-DnGRrSVPr-9">
          <mxGeometry width="160" relative="1" as="geometry">
            <mxPoint x="500" y="150" as="sourcePoint" />
            <mxPoint x="340" y="150" as="targetPoint" />
          </mxGeometry>
        </mxCell>
        <mxCell id="qmGypnQEwG-DnGRrSVPr-12" value="&amp;lt;&amp;lt;Extend&amp;gt;&amp;gt;" style="endArrow=open;endSize=12;dashed=1;html=1;rounded=0;entryX=1;entryY=0;entryDx=0;entryDy=0;exitX=0.086;exitY=0.862;exitDx=0;exitDy=0;exitPerimeter=0;" edge="1" parent="qmGypnQEwG-DnGRrSVPr-1" source="qmGypnQEwG-DnGRrSVPr-10" target="qmGypnQEwG-DnGRrSVPr-5">
          <mxGeometry width="160" relative="1" as="geometry">
            <mxPoint x="350" y="215" as="sourcePoint" />
            <mxPoint x="350" y="160" as="targetPoint" />
          </mxGeometry>
        </mxCell>
        <mxCell id="qmGypnQEwG-DnGRrSVPr-13" value="&amp;lt;&amp;lt;Extend&amp;gt;&amp;gt;" style="endArrow=open;endSize=12;dashed=1;html=1;rounded=0;exitX=0;exitY=0.5;exitDx=0;exitDy=0;" edge="1" parent="qmGypnQEwG-DnGRrSVPr-1" source="qmGypnQEwG-DnGRrSVPr-8" target="qmGypnQEwG-DnGRrSVPr-5">
          <mxGeometry width="160" relative="1" as="geometry">
            <mxPoint x="492" y="150" as="sourcePoint" />
            <mxPoint x="410" y="240" as="targetPoint" />
          </mxGeometry>
        </mxCell>
        <mxCell id="qmGypnQEwG-DnGRrSVPr-14" value="&amp;lt;&amp;lt;Extend&amp;gt;&amp;gt;" style="endArrow=open;endSize=12;dashed=1;html=1;rounded=0;exitX=0;exitY=0;exitDx=0;exitDy=0;" edge="1" parent="qmGypnQEwG-DnGRrSVPr-1" source="qmGypnQEwG-DnGRrSVPr-7" target="qmGypnQEwG-DnGRrSVPr-5">
          <mxGeometry width="160" relative="1" as="geometry">
            <mxPoint x="492" y="150" as="sourcePoint" />
            <mxPoint x="389" y="230" as="targetPoint" />
          </mxGeometry>
        </mxCell>
        <mxCell id="qmGypnQEwG-DnGRrSVPr-15" value="&amp;lt;&amp;lt;Extend&amp;gt;&amp;gt;" style="endArrow=open;endSize=12;dashed=1;html=1;rounded=0;entryX=0.5;entryY=1;entryDx=0;entryDy=0;exitX=0.5;exitY=0;exitDx=0;exitDy=0;" edge="1" parent="qmGypnQEwG-DnGRrSVPr-1" source="qmGypnQEwG-DnGRrSVPr-6" target="qmGypnQEwG-DnGRrSVPr-5">
          <mxGeometry width="160" relative="1" as="geometry">
            <mxPoint x="502" y="160" as="sourcePoint" />
            <mxPoint x="399" y="240" as="targetPoint" />
          </mxGeometry>
        </mxCell>
      </root>
    </mxGraphModel>
  </diagram>
  <diagram name="Remove Customer" id="nAbFDOhm2sI3lqlyE7MI">
    <mxGraphModel dx="1060" dy="570" grid="1" gridSize="10" guides="1" tooltips="1" connect="1" arrows="1" fold="1" page="1" pageScale="1" pageWidth="1100" pageHeight="850" math="0" shadow="0">
      <root>
        <mxCell id="KbdfaKuHcUSB70Pp0mJX-0" />
        <mxCell id="KbdfaKuHcUSB70Pp0mJX-1" parent="KbdfaKuHcUSB70Pp0mJX-0" />
        <mxCell id="KbdfaKuHcUSB70Pp0mJX-2" value="" style="whiteSpace=wrap;html=1;aspect=fixed;fillColor=none;strokeColor=default;" vertex="1" parent="KbdfaKuHcUSB70Pp0mJX-1">
          <mxGeometry x="240" y="60" width="410" height="410" as="geometry" />
        </mxCell>
        <mxCell id="KbdfaKuHcUSB70Pp0mJX-3" style="edgeStyle=orthogonalEdgeStyle;rounded=0;orthogonalLoop=1;jettySize=auto;html=1;" edge="1" parent="KbdfaKuHcUSB70Pp0mJX-1" source="KbdfaKuHcUSB70Pp0mJX-4" target="KbdfaKuHcUSB70Pp0mJX-5">
          <mxGeometry relative="1" as="geometry" />
        </mxCell>
        <mxCell id="KbdfaKuHcUSB70Pp0mJX-4" value="Owner/Admin" style="shape=umlActor;verticalLabelPosition=bottom;verticalAlign=top;html=1;" vertex="1" parent="KbdfaKuHcUSB70Pp0mJX-1">
          <mxGeometry x="140" y="215" width="30" height="60" as="geometry" />
        </mxCell>
        <mxCell id="KbdfaKuHcUSB70Pp0mJX-5" value="Remove Customer" style="ellipse;whiteSpace=wrap;html=1;" vertex="1" parent="KbdfaKuHcUSB70Pp0mJX-1">
          <mxGeometry x="260" y="210" width="140" height="70" as="geometry" />
        </mxCell>
        <mxCell id="KbdfaKuHcUSB70Pp0mJX-6" value="Successful Deleltion Message" style="ellipse;whiteSpace=wrap;html=1;" vertex="1" parent="KbdfaKuHcUSB70Pp0mJX-1">
          <mxGeometry x="260" y="380" width="140" height="70" as="geometry" />
        </mxCell>
        <mxCell id="KbdfaKuHcUSB70Pp0mJX-7" value="Error Message" style="ellipse;whiteSpace=wrap;html=1;" vertex="1" parent="KbdfaKuHcUSB70Pp0mJX-1">
          <mxGeometry x="460" y="380" width="140" height="70" as="geometry" />
        </mxCell>
        <mxCell id="KbdfaKuHcUSB70Pp0mJX-8" value="Calling Deleting Function" style="ellipse;whiteSpace=wrap;html=1;" vertex="1" parent="KbdfaKuHcUSB70Pp0mJX-1">
          <mxGeometry x="500" y="190" width="140" height="70" as="geometry" />
        </mxCell>
        <mxCell id="KbdfaKuHcUSB70Pp0mJX-9" value="System Checking Inputs" style="ellipse;whiteSpace=wrap;html=1;" vertex="1" parent="KbdfaKuHcUSB70Pp0mJX-1">
          <mxGeometry x="270" y="70" width="140" height="70" as="geometry" />
        </mxCell>
        <mxCell id="KbdfaKuHcUSB70Pp0mJX-10" value="System Validation" style="ellipse;whiteSpace=wrap;html=1;" vertex="1" parent="KbdfaKuHcUSB70Pp0mJX-1">
          <mxGeometry x="480" y="70" width="140" height="70" as="geometry" />
        </mxCell>
        <mxCell id="KbdfaKuHcUSB70Pp0mJX-11" value="&amp;lt;&amp;lt;Include&amp;gt;&amp;gt;" style="endArrow=open;endSize=12;dashed=1;html=1;rounded=0;" edge="1" parent="KbdfaKuHcUSB70Pp0mJX-1" source="KbdfaKuHcUSB70Pp0mJX-5" target="KbdfaKuHcUSB70Pp0mJX-9">
          <mxGeometry width="160" relative="1" as="geometry">
            <mxPoint x="500" y="150" as="sourcePoint" />
            <mxPoint x="340" y="150" as="targetPoint" />
          </mxGeometry>
        </mxCell>
        <mxCell id="KbdfaKuHcUSB70Pp0mJX-12" value="&amp;lt;&amp;lt;Extend&amp;gt;&amp;gt;" style="endArrow=open;endSize=12;dashed=1;html=1;rounded=0;entryX=1;entryY=0;entryDx=0;entryDy=0;exitX=0.086;exitY=0.862;exitDx=0;exitDy=0;exitPerimeter=0;" edge="1" parent="KbdfaKuHcUSB70Pp0mJX-1" source="KbdfaKuHcUSB70Pp0mJX-10" target="KbdfaKuHcUSB70Pp0mJX-5">
          <mxGeometry width="160" relative="1" as="geometry">
            <mxPoint x="350" y="215" as="sourcePoint" />
            <mxPoint x="350" y="160" as="targetPoint" />
          </mxGeometry>
        </mxCell>
        <mxCell id="KbdfaKuHcUSB70Pp0mJX-13" value="&amp;lt;&amp;lt;Extend&amp;gt;&amp;gt;" style="endArrow=open;endSize=12;dashed=1;html=1;rounded=0;exitX=0;exitY=0.5;exitDx=0;exitDy=0;" edge="1" parent="KbdfaKuHcUSB70Pp0mJX-1" source="KbdfaKuHcUSB70Pp0mJX-8" target="KbdfaKuHcUSB70Pp0mJX-5">
          <mxGeometry width="160" relative="1" as="geometry">
            <mxPoint x="492" y="150" as="sourcePoint" />
            <mxPoint x="410" y="240" as="targetPoint" />
          </mxGeometry>
        </mxCell>
        <mxCell id="KbdfaKuHcUSB70Pp0mJX-14" value="&amp;lt;&amp;lt;Extend&amp;gt;&amp;gt;" style="endArrow=open;endSize=12;dashed=1;html=1;rounded=0;exitX=0;exitY=0;exitDx=0;exitDy=0;" edge="1" parent="KbdfaKuHcUSB70Pp0mJX-1" source="KbdfaKuHcUSB70Pp0mJX-7" target="KbdfaKuHcUSB70Pp0mJX-5">
          <mxGeometry width="160" relative="1" as="geometry">
            <mxPoint x="492" y="150" as="sourcePoint" />
            <mxPoint x="389" y="230" as="targetPoint" />
          </mxGeometry>
        </mxCell>
        <mxCell id="KbdfaKuHcUSB70Pp0mJX-15" value="&amp;lt;&amp;lt;Extend&amp;gt;&amp;gt;" style="endArrow=open;endSize=12;dashed=1;html=1;rounded=0;entryX=0.5;entryY=1;entryDx=0;entryDy=0;exitX=0.5;exitY=0;exitDx=0;exitDy=0;" edge="1" parent="KbdfaKuHcUSB70Pp0mJX-1" source="KbdfaKuHcUSB70Pp0mJX-6" target="KbdfaKuHcUSB70Pp0mJX-5">
          <mxGeometry width="160" relative="1" as="geometry">
            <mxPoint x="502" y="160" as="sourcePoint" />
            <mxPoint x="399" y="240" as="targetPoint" />
          </mxGeometry>
        </mxCell>
        <mxCell id="h75atMXM1YhnPhtVtQPT-0" value="Confirmation Message" style="ellipse;whiteSpace=wrap;html=1;" vertex="1" parent="KbdfaKuHcUSB70Pp0mJX-1">
          <mxGeometry x="492" y="280" width="140" height="70" as="geometry" />
        </mxCell>
        <mxCell id="h75atMXM1YhnPhtVtQPT-1" value="&amp;lt;&amp;lt;Extend&amp;gt;&amp;gt;" style="endArrow=open;endSize=12;dashed=1;html=1;rounded=0;exitX=0;exitY=0.5;exitDx=0;exitDy=0;entryX=0.923;entryY=0.772;entryDx=0;entryDy=0;entryPerimeter=0;" edge="1" parent="KbdfaKuHcUSB70Pp0mJX-1" source="h75atMXM1YhnPhtVtQPT-0" target="KbdfaKuHcUSB70Pp0mJX-5">
          <mxGeometry width="160" relative="1" as="geometry">
            <mxPoint x="484" y="240" as="sourcePoint" />
            <mxPoint x="390" y="327" as="targetPoint" />
          </mxGeometry>
        </mxCell>
      </root>
    </mxGraphModel>
  </diagram>
  <diagram name="Show Customer" id="PFWZCr1sxLasgaIq8HBq">
    <mxGraphModel dx="873" dy="469" grid="1" gridSize="10" guides="1" tooltips="1" connect="1" arrows="1" fold="1" page="1" pageScale="1" pageWidth="1100" pageHeight="850" math="0" shadow="0">
      <root>
        <mxCell id="dESsBKoA4fLgDPKlcfKF-0" />
        <mxCell id="dESsBKoA4fLgDPKlcfKF-1" parent="dESsBKoA4fLgDPKlcfKF-0" />
        <mxCell id="dESsBKoA4fLgDPKlcfKF-2" value="" style="whiteSpace=wrap;html=1;aspect=fixed;fillColor=none;strokeColor=default;" vertex="1" parent="dESsBKoA4fLgDPKlcfKF-1">
          <mxGeometry x="240" y="60" width="410" height="410" as="geometry" />
        </mxCell>
        <mxCell id="dESsBKoA4fLgDPKlcfKF-3" style="edgeStyle=orthogonalEdgeStyle;rounded=0;orthogonalLoop=1;jettySize=auto;html=1;" edge="1" parent="dESsBKoA4fLgDPKlcfKF-1" source="dESsBKoA4fLgDPKlcfKF-4" target="dESsBKoA4fLgDPKlcfKF-5">
          <mxGeometry relative="1" as="geometry" />
        </mxCell>
        <mxCell id="dESsBKoA4fLgDPKlcfKF-4" value="Owner/Admin" style="shape=umlActor;verticalLabelPosition=bottom;verticalAlign=top;html=1;" vertex="1" parent="dESsBKoA4fLgDPKlcfKF-1">
          <mxGeometry x="140" y="215" width="30" height="60" as="geometry" />
        </mxCell>
        <mxCell id="dESsBKoA4fLgDPKlcfKF-5" value="Show Customer" style="ellipse;whiteSpace=wrap;html=1;" vertex="1" parent="dESsBKoA4fLgDPKlcfKF-1">
          <mxGeometry x="260" y="210" width="140" height="70" as="geometry" />
        </mxCell>
        <mxCell id="dESsBKoA4fLgDPKlcfKF-6" value="Successful Retrivring of data" style="ellipse;whiteSpace=wrap;html=1;" vertex="1" parent="dESsBKoA4fLgDPKlcfKF-1">
          <mxGeometry x="260" y="380" width="140" height="70" as="geometry" />
        </mxCell>
        <mxCell id="dESsBKoA4fLgDPKlcfKF-7" value="Error Message" style="ellipse;whiteSpace=wrap;html=1;" vertex="1" parent="dESsBKoA4fLgDPKlcfKF-1">
          <mxGeometry x="480" y="380" width="140" height="70" as="geometry" />
        </mxCell>
        <mxCell id="dESsBKoA4fLgDPKlcfKF-8" value="Calling Retrive Function" style="ellipse;whiteSpace=wrap;html=1;" vertex="1" parent="dESsBKoA4fLgDPKlcfKF-1">
          <mxGeometry x="490" y="215" width="140" height="70" as="geometry" />
        </mxCell>
        <mxCell id="dESsBKoA4fLgDPKlcfKF-9" value="System Checking Inputs" style="ellipse;whiteSpace=wrap;html=1;" vertex="1" parent="dESsBKoA4fLgDPKlcfKF-1">
          <mxGeometry x="270" y="70" width="140" height="70" as="geometry" />
        </mxCell>
        <mxCell id="dESsBKoA4fLgDPKlcfKF-10" value="System Validation" style="ellipse;whiteSpace=wrap;html=1;" vertex="1" parent="dESsBKoA4fLgDPKlcfKF-1">
          <mxGeometry x="480" y="70" width="140" height="70" as="geometry" />
        </mxCell>
        <mxCell id="dESsBKoA4fLgDPKlcfKF-11" value="&amp;lt;&amp;lt;Include&amp;gt;&amp;gt;" style="endArrow=open;endSize=12;dashed=1;html=1;rounded=0;" edge="1" parent="dESsBKoA4fLgDPKlcfKF-1" source="dESsBKoA4fLgDPKlcfKF-5" target="dESsBKoA4fLgDPKlcfKF-9">
          <mxGeometry width="160" relative="1" as="geometry">
            <mxPoint x="500" y="150" as="sourcePoint" />
            <mxPoint x="340" y="150" as="targetPoint" />
          </mxGeometry>
        </mxCell>
        <mxCell id="dESsBKoA4fLgDPKlcfKF-12" value="&amp;lt;&amp;lt;Extend&amp;gt;&amp;gt;" style="endArrow=open;endSize=12;dashed=1;html=1;rounded=0;entryX=1;entryY=0;entryDx=0;entryDy=0;exitX=0.086;exitY=0.862;exitDx=0;exitDy=0;exitPerimeter=0;" edge="1" parent="dESsBKoA4fLgDPKlcfKF-1" source="dESsBKoA4fLgDPKlcfKF-10" target="dESsBKoA4fLgDPKlcfKF-5">
          <mxGeometry width="160" relative="1" as="geometry">
            <mxPoint x="350" y="215" as="sourcePoint" />
            <mxPoint x="350" y="160" as="targetPoint" />
          </mxGeometry>
        </mxCell>
        <mxCell id="dESsBKoA4fLgDPKlcfKF-13" value="&amp;lt;&amp;lt;Extend&amp;gt;&amp;gt;" style="endArrow=open;endSize=12;dashed=1;html=1;rounded=0;exitX=0;exitY=0.5;exitDx=0;exitDy=0;" edge="1" parent="dESsBKoA4fLgDPKlcfKF-1" source="dESsBKoA4fLgDPKlcfKF-8" target="dESsBKoA4fLgDPKlcfKF-5">
          <mxGeometry width="160" relative="1" as="geometry">
            <mxPoint x="492" y="150" as="sourcePoint" />
            <mxPoint x="410" y="240" as="targetPoint" />
          </mxGeometry>
        </mxCell>
        <mxCell id="dESsBKoA4fLgDPKlcfKF-14" value="&amp;lt;&amp;lt;Extend&amp;gt;&amp;gt;" style="endArrow=open;endSize=12;dashed=1;html=1;rounded=0;exitX=0;exitY=0;exitDx=0;exitDy=0;" edge="1" parent="dESsBKoA4fLgDPKlcfKF-1" source="dESsBKoA4fLgDPKlcfKF-7" target="dESsBKoA4fLgDPKlcfKF-5">
          <mxGeometry width="160" relative="1" as="geometry">
            <mxPoint x="492" y="150" as="sourcePoint" />
            <mxPoint x="389" y="230" as="targetPoint" />
          </mxGeometry>
        </mxCell>
        <mxCell id="dESsBKoA4fLgDPKlcfKF-15" value="&amp;lt;&amp;lt;Extend&amp;gt;&amp;gt;" style="endArrow=open;endSize=12;dashed=1;html=1;rounded=0;entryX=0.5;entryY=1;entryDx=0;entryDy=0;exitX=0.5;exitY=0;exitDx=0;exitDy=0;" edge="1" parent="dESsBKoA4fLgDPKlcfKF-1" source="dESsBKoA4fLgDPKlcfKF-6" target="dESsBKoA4fLgDPKlcfKF-5">
          <mxGeometry width="160" relative="1" as="geometry">
            <mxPoint x="502" y="160" as="sourcePoint" />
            <mxPoint x="399" y="240" as="targetPoint" />
          </mxGeometry>
        </mxCell>
      </root>
    </mxGraphModel>
  </diagram>
  <diagram name="Show Customers" id="kS9FJUZ3cUJ6YXeTjK3m">
    <mxGraphModel dx="873" dy="469" grid="1" gridSize="10" guides="1" tooltips="1" connect="1" arrows="1" fold="1" page="1" pageScale="1" pageWidth="1100" pageHeight="850" math="0" shadow="0">
      <root>
        <mxCell id="ON_0SEMOUqZHZZJcWiwp-0" />
        <mxCell id="ON_0SEMOUqZHZZJcWiwp-1" parent="ON_0SEMOUqZHZZJcWiwp-0" />
        <mxCell id="ON_0SEMOUqZHZZJcWiwp-2" value="" style="whiteSpace=wrap;html=1;aspect=fixed;fillColor=none;strokeColor=default;" vertex="1" parent="ON_0SEMOUqZHZZJcWiwp-1">
          <mxGeometry x="240" y="60" width="350" height="350" as="geometry" />
        </mxCell>
        <mxCell id="ON_0SEMOUqZHZZJcWiwp-3" style="edgeStyle=orthogonalEdgeStyle;rounded=0;orthogonalLoop=1;jettySize=auto;html=1;" edge="1" parent="ON_0SEMOUqZHZZJcWiwp-1" source="ON_0SEMOUqZHZZJcWiwp-4" target="ON_0SEMOUqZHZZJcWiwp-5">
          <mxGeometry relative="1" as="geometry">
            <Array as="points">
              <mxPoint x="280" y="250" />
            </Array>
          </mxGeometry>
        </mxCell>
        <mxCell id="ON_0SEMOUqZHZZJcWiwp-4" value="Owner/Admin" style="shape=umlActor;verticalLabelPosition=bottom;verticalAlign=top;html=1;" vertex="1" parent="ON_0SEMOUqZHZZJcWiwp-1">
          <mxGeometry x="140" y="215" width="30" height="60" as="geometry" />
        </mxCell>
        <mxCell id="ON_0SEMOUqZHZZJcWiwp-5" value="Show Customers" style="ellipse;whiteSpace=wrap;html=1;" vertex="1" parent="ON_0SEMOUqZHZZJcWiwp-1">
          <mxGeometry x="260" y="290" width="140" height="70" as="geometry" />
        </mxCell>
        <mxCell id="ON_0SEMOUqZHZZJcWiwp-11" value="&amp;lt;&amp;lt;Include&amp;gt;&amp;gt;" style="endArrow=open;endSize=12;dashed=1;html=1;rounded=0;entryX=0.449;entryY=1.018;entryDx=0;entryDy=0;entryPerimeter=0;" edge="1" parent="ON_0SEMOUqZHZZJcWiwp-1" source="ON_0SEMOUqZHZZJcWiwp-5" target="sElvOkw_4TGeCDA7NfaW-2">
          <mxGeometry width="160" relative="1" as="geometry">
            <mxPoint x="500" y="150" as="sourcePoint" />
            <mxPoint x="337.5015928641112" y="139.97769990244342" as="targetPoint" />
          </mxGeometry>
        </mxCell>
        <mxCell id="sElvOkw_4TGeCDA7NfaW-2" value="Retrivel data Function" style="ellipse;whiteSpace=wrap;html=1;" vertex="1" parent="ON_0SEMOUqZHZZJcWiwp-1">
          <mxGeometry x="270" y="130" width="140" height="70" as="geometry" />
        </mxCell>
        <mxCell id="sElvOkw_4TGeCDA7NfaW-3" value="Recalling Columns names" style="ellipse;whiteSpace=wrap;html=1;" vertex="1" parent="ON_0SEMOUqZHZZJcWiwp-1">
          <mxGeometry x="440" y="215" width="140" height="70" as="geometry" />
        </mxCell>
        <mxCell id="sElvOkw_4TGeCDA7NfaW-4" value="&amp;lt;&amp;lt;Include&amp;gt;&amp;gt;" style="endArrow=open;endSize=12;dashed=1;html=1;rounded=0;entryX=0;entryY=0.5;entryDx=0;entryDy=0;exitX=1.001;exitY=0.408;exitDx=0;exitDy=0;exitPerimeter=0;" edge="1" parent="ON_0SEMOUqZHZZJcWiwp-1" source="ON_0SEMOUqZHZZJcWiwp-5" target="sElvOkw_4TGeCDA7NfaW-3">
          <mxGeometry width="160" relative="1" as="geometry">
            <mxPoint x="340" y="310" as="sourcePoint" />
            <mxPoint x="343" y="181" as="targetPoint" />
          </mxGeometry>
        </mxCell>
      </root>
    </mxGraphModel>
  </diagram>
</mxfile>
